<?xml version="1.0" encoding="UTF-8"?>
<svg id="Layer_1" xmlns="http://www.w3.org/2000/svg" version="1.1" xmlns:xlink="http://www.w3.org/1999/xlink" viewBox="0 0 720 1024">
  <!-- Generator: Adobe Illustrator 29.1.0, SVG Export Plug-In . SVG Version: 2.1.0 Build 142)  -->
  <defs>
    <style>
      .st0 {
        clip-path: url(#clippath-6);
      }

      .st1 {
        clip-path: url(#clippath-7);
      }

      .st2 {
        clip-path: url(#clippath-17);
      }

      .st3 {
        clip-path: url(#clippath-15);
      }

      .st4 {
        clip-path: url(#clippath-18);
      }

      .st5 {
        clip-path: url(#clippath-4);
      }

      .st6, .st7 {
        fill: #e89b1a;
      }

      .st8 {
        clip-path: url(#clippath-9);
      }

      .st9 {
        clip-path: url(#clippath-10);
      }

      .st10, .st11, .st12 {
        fill: #fff;
      }

      .st11, .st7 {
        fill-rule: evenodd;
      }

      .st13 {
        clip-path: url(#clippath-11);
      }

      .st14, .st15, .st16 {
        fill: none;
      }

      .st17 {
        clip-path: url(#clippath-1);
      }

      .st15 {
        stroke: #fff;
        stroke-linecap: round;
        stroke-linejoin: round;
        stroke-width: 1.4px;
      }

      .st18 {
        fill: #1b1b1f;
      }

      .st19 {
        clip-path: url(#clippath-5);
      }

      .st20 {
        clip-path: url(#clippath-8);
      }

      .st21 {
        clip-path: url(#clippath-3);
      }

      .st22 {
        clip-path: url(#clippath-12);
      }

      .st23 {
        clip-path: url(#clippath-14);
      }

      .st24 {
        fill: #efefef;
      }

      .st16 {
        stroke: #000;
        stroke-miterlimit: 4;
        stroke-opacity: 0;
        stroke-width: .7px;
      }

      .st25 {
        fill: #09090a;
      }

      .st26 {
        fill: url(#linear-gradient1);
      }

      .st26, .st27 {
        fill-opacity: .7;
      }

      .st28 {
        clip-path: url(#clippath-16);
      }

      .st29 {
        clip-path: url(#clippath-2);
      }

      .st12 {
        fill-opacity: 0;
      }

      .st30 {
        clip-path: url(#clippath-13);
      }

      .st31 {
        fill: #fafafa;
      }

      .st27 {
        fill: url(#linear-gradient);
      }

      .st32 {
        clip-path: url(#clippath);
      }
    </style>
    <clipPath id="clippath">
      <rect class="st14" width="720" height="1024"/>
    </clipPath>
    <clipPath id="clippath-1">
      <rect class="st14" x="-376" y="174.8" width="1472.1" height="841.4" transform="translate(-236.3 954.2) rotate(-89.9)"/>
    </clipPath>
    <clipPath id="clippath-2">
      <path class="st14" d="M253.7,696.6l456.2,91.5c11.7,2.3,19.3,13.7,16.9,25.4l-42,209.4c-2.3,11.7-13.7,19.3-25.4,16.9l-456.2-91.5c-11.7-2.3-19.3-13.7-16.9-25.4l42-209.4c2.3-11.7,13.7-19.3,25.4-16.9Z"/>
    </clipPath>
    <linearGradient id="linear-gradient" x1="427.4" y1="286.6" x2="427.4" y2="-8.9" gradientTransform="translate(313.9 459.9) rotate(90) scale(1 -1)" gradientUnits="userSpaceOnUse">
      <stop offset="0" stop-color="#000" stop-opacity="0"/>
      <stop offset="1" stop-color="#000"/>
    </linearGradient>
    <clipPath id="clippath-3">
      <rect class="st14" x="252.1" y="454.2" width="256.7" height="244.5" rx="21.6" ry="21.6" transform="translate(-259.5 836.2) rotate(-78.7)"/>
    </clipPath>
    <clipPath id="clippath-4">
      <rect class="st14" x="510.9" y="506.1" width="256.7" height="244.5" rx="21.6" ry="21.6" transform="translate(-102.5 1131.6) rotate(-78.7)"/>
    </clipPath>
    <clipPath id="clippath-5">
      <rect class="st14" x="104.8" y="-131.3" width="256.7" height="244.5" rx="21.6" ry="21.6" transform="translate(196.2 221.3) rotate(-78.7)"/>
    </clipPath>
    <clipPath id="clippath-6">
      <path class="st14" d="M-54.7,914.2l197.4,39.6c11.7,2.3,19.3,13.7,16.9,25.4l-42,209.4c-2.3,11.7-13.7,19.3-25.4,16.9l-197.4-39.6c-11.7-2.3-19.3-13.7-16.9-25.4l42-209.4c2.3-11.7,13.7-19.3,25.4-16.9Z"/>
    </clipPath>
    <clipPath id="clippath-7">
      <rect class="st14" x="124.8" y="969.7" width="17.3" height="17.3" transform="translate(-852.1 916.8) rotate(-78.7)"/>
    </clipPath>
    <clipPath id="clippath-8">
      <rect class="st14" x="51.5" y="134.5" width="256.7" height="244.5" rx="21.6" ry="21.6" transform="translate(-107.3 382.6) rotate(-78.7)"/>
    </clipPath>
    <clipPath id="clippath-9">
      <rect class="st14" x="361.4" y="-79.8" width="256.7" height="244.5" rx="21.6" ry="21.6" transform="translate(351.9 514.3) rotate(-78.7)"/>
    </clipPath>
    <clipPath id="clippath-10">
      <rect class="st14" x="111.5" y="1018.3" width="530.7" height="506.3" rx="21.6" ry="21.6" transform="translate(-943.9 1390.9) rotate(-78.7)"/>
    </clipPath>
    <clipPath id="clippath-11">
      <rect class="st14" x="308.1" y="186" width="256.7" height="244.5" rx="21.6" ry="21.6" transform="translate(48.4 675.6) rotate(-78.7)"/>
    </clipPath>
    <linearGradient id="linear-gradient1" x1="403.7" y1="820.9" x2="403.7" y2="564.2" gradientTransform="translate(-256 -95.4) rotate(90) scale(1 -1)" gradientUnits="userSpaceOnUse">
      <stop offset="0" stop-color="#000" stop-opacity="0"/>
      <stop offset="1" stop-color="#000"/>
    </linearGradient>
    <clipPath id="clippath-12">
      <rect class="st14" x="481.4" y="343.7" width="17.3" height="17.3" transform="translate(48.2 763.5) rotate(-78.7)"/>
    </clipPath>
    <clipPath id="clippath-13">
      <path class="st14" d="M327.4,376.9h0c5.8,1.2,9.6,6.9,8.5,12.7h0c-1.2,5.8-6.9,9.6-12.7,8.5h0c-5.8-1.2-9.6-6.9-8.5-12.7h0c1.2-5.8,6.9-9.6,12.7-8.5Z"/>
    </clipPath>
    <clipPath id="clippath-14">
      <rect class="st14" x="451.9" y="407.8" width="12.9" height="12.9" rx="3.6" ry="3.6" transform="translate(-37.9 782.2) rotate(-78.7)"/>
    </clipPath>
    <clipPath id="clippath-15">
      <rect class="st14" x="492.7" y="415.9" width="12.9" height="12.9" transform="translate(-13.1 828.8) rotate(-78.7)"/>
    </clipPath>
    <clipPath id="clippath-16">
      <rect class="st14" x="455.9" y="104.6" width="527.8" height="244.5" rx="21.6" ry="21.6" transform="translate(355.9 888) rotate(-78.7)"/>
    </clipPath>
    <clipPath id="clippath-17">
      <rect class="st14" x="-166.7" y="535.7" width="527.8" height="244.5" rx="21.6" ry="21.6" transform="translate(-567 623.8) rotate(-78.7)"/>
    </clipPath>
    <clipPath id="clippath-18">
      <rect class="st14" x="229.9" y="434.8" width="17.3" height="17.3" transform="translate(-243.2 590.1) rotate(-78.7)"/>
    </clipPath>
    <image id="image" width="1000" height="667" xlink:href="chef.png"/>
  </defs>
  <g class="st32">
    <g>
      <rect class="st25" width="720" height="1024"/>
      <g class="st17">
        <g>
          <rect x="-357.5" y="176.6" width="1472.1" height="841.4" transform="translate(-281.6 851) rotate(-78.7)"/>
          <g class="st29">
            <g>
              <rect class="st18" x="328.2" y="614" width="256.7" height="508.4" rx="21.6" ry="21.6" transform="translate(-484.5 1145.2) rotate(-78.7)"/>
              <image width="1000" height="667" transform="translate(211.9 636.1) rotate(11.2) scale(.5)" xlink:href="Panna-Cotta-1.jpg"/>
              <rect class="st14" x="328.2" y="614" width="256.7" height="508.4" rx="21.6" ry="21.6" transform="translate(-484.5 1145.2) rotate(-78.7)"/>
              <rect class="st27" x="305" y="633.1" width="295.6" height="508.4" transform="translate(-506.2 1156.7) rotate(-78.7)"/>
              <path class="st10" d="M218.5,916.1c0-.3,0-.5-.2-.8,0-.2-.2-.4-.4-.6-.2-.2-.4-.3-.6-.5-.2-.1-.5-.2-.8-.3-.6-.1-1.1,0-1.6.1-.5.2-.9.5-1.3,1-.4.5-.6,1.1-.8,1.9-.2.8-.2,1.5,0,2.1.1.6.4,1.1.8,1.5.4.4.9.6,1.5.7.5.1,1,.1,1.4,0,.4-.1.8-.3,1-.6.3-.3.5-.7.6-1.2l.5.2-2.9-.6.4-1.8,4.7.9-.3,1.4c-.2,1-.6,1.8-1.1,2.4-.6.6-1.2,1.1-2.1,1.3-.8.2-1.7.3-2.6,0-1.1-.2-1.9-.6-2.6-1.3-.7-.6-1.2-1.4-1.5-2.4-.3-1-.3-2,0-3.2.2-.9.5-1.7.9-2.4.4-.7.9-1.2,1.5-1.6s1.2-.7,1.9-.8c.7-.1,1.4-.1,2.2,0,.6.1,1.2.3,1.7.6.5.3,1,.7,1.3,1.1.4.4.6.9.8,1.4.2.5.3,1.1.2,1.6l-2.4-.5ZM224.3,925.4c-.9-.2-1.6-.5-2.1-1-.5-.5-.9-1.1-1.1-1.8-.2-.7-.2-1.5,0-2.4.2-.9.5-1.6,1-2.2.5-.6,1.1-1,1.7-1.2.7-.2,1.5-.3,2.3-.1.9.2,1.6.5,2.1,1,.6.5.9,1.1,1.1,1.8.2.7.2,1.5,0,2.4-.2.9-.5,1.6-1,2.2-.5.6-1.1,1-1.8,1.2-.7.2-1.5.3-2.3.1ZM224.7,923.5c.4,0,.7,0,1-.1.3-.2.6-.4.8-.8.2-.4.4-.8.5-1.3,0-.5.1-.9,0-1.4,0-.4-.2-.8-.4-1-.2-.3-.5-.5-.9-.5-.4,0-.7,0-1.1.1-.3.2-.6.4-.8.8-.2.4-.4.8-.5,1.3,0,.5-.1.9,0,1.4,0,.4.2.8.4,1,.2.3.5.5.9.5ZM236,927.7c-.9-.2-1.6-.5-2.1-1-.5-.5-.9-1.1-1.1-1.8-.2-.7-.2-1.5,0-2.4.2-.9.5-1.6,1-2.2.5-.6,1.1-1,1.7-1.2.7-.2,1.5-.3,2.3-.1.9.2,1.6.5,2.1,1,.6.5.9,1.1,1.1,1.8.2.7.2,1.5,0,2.4-.2.9-.5,1.6-1,2.2-.5.6-1.1,1-1.8,1.2-.7.2-1.5.3-2.3.1ZM236.4,925.9c.4,0,.7,0,1-.1.3-.2.6-.4.8-.8.2-.4.4-.8.5-1.3,0-.5.1-.9,0-1.4,0-.4-.2-.8-.4-1-.2-.3-.5-.5-.9-.5-.4,0-.7,0-1.1.1-.3.2-.6.4-.8.8-.2.4-.4.8-.5,1.3,0,.5-.1.9,0,1.4,0,.4.2.8.4,1,.2.3.5.5.9.5ZM244.4,924.1l-1,4.9-2.3-.5,1.7-8.5,2.2.4-.3,1.5h0c.3-.4.7-.8,1.2-1,.5-.2,1.1-.2,1.7-.1.6.1,1.1.3,1.5.7.4.3.7.8.8,1.3.1.5.2,1.1,0,1.8l-1.1,5.4-2.3-.5,1-5c.1-.5,0-.9-.2-1.3-.2-.3-.5-.6-1-.7-.3,0-.6,0-.9,0-.3,0-.5.2-.7.5-.2.2-.3.5-.4.9ZM255.3,931.6c-.5-.1-1-.3-1.4-.6-.4-.3-.7-.6-.8-1-.2-.4-.2-.9,0-1.5,0-.5.3-.8.5-1.1.2-.3.5-.5.9-.6.3-.1.7-.2,1.1-.2.4,0,.8,0,1.2,0,.5,0,.9,0,1.2,0,.3,0,.5,0,.7,0,.2,0,.2-.2.3-.4h0c0-.4,0-.7-.2-.9-.2-.2-.5-.4-.9-.5-.4,0-.8,0-1.1,0-.3.1-.5.3-.6.6l-2.1-.6c.2-.5.5-.9.9-1.2.4-.3.9-.5,1.4-.6.6-.1,1.2,0,1.8,0,.5,0,.9.2,1.3.4.4.2.8.4,1,.7.3.3.5.7.6,1.1.1.4.1.9,0,1.4l-1.1,5.7-2.2-.4.2-1.2h0c-.2.2-.4.4-.7.6-.3.2-.6.3-.9.3-.3,0-.7,0-1.1,0ZM256.3,930.1c.3,0,.7,0,1,0,.3,0,.5-.2.7-.4.2-.2.3-.5.4-.8l.2-.9c0,0-.2,0-.3,0-.1,0-.3,0-.4,0-.2,0-.3,0-.5,0-.2,0-.3,0-.4,0-.3,0-.5,0-.8,0-.2,0-.4.1-.6.3-.1.1-.2.3-.3.5,0,.3,0,.6.2.8.2.2.5.4.8.4ZM270.3,925.6l-.4,1.8-5.1-1,.4-1.8,5.1,1ZM266.7,922.8l2.3.5-1.6,7.9c0,.2,0,.4,0,.5,0,.1.1.2.2.3.1,0,.2.1.4.2.1,0,.2,0,.3,0,.1,0,.2,0,.3,0v1.8c-.1,0-.3,0-.5,0-.2,0-.5,0-.8,0-.6,0-1.1-.3-1.4-.5-.4-.3-.7-.6-.8-1-.2-.4-.2-.9,0-1.4l1.6-8.2ZM269.4,934.2l1.7-8.5,2.3.5-.3,1.5h0c.3-.5.6-.8,1-1,.4-.2.9-.3,1.3-.2.1,0,.2,0,.4,0,.1,0,.2,0,.3.1l-.4,2.1c-.1,0-.2-.1-.4-.2-.2,0-.4-.1-.5-.1-.3,0-.7,0-1,0-.3,0-.6.3-.8.5-.2.2-.3.5-.4.9l-1,4.8-2.3-.5ZM275,935.4l1.7-8.5,2.3.5-1.7,8.5-2.3-.5ZM278.1,926c-.3,0-.6-.2-.8-.5-.2-.3-.3-.6-.2-.9,0-.3.2-.6.5-.8.3-.2.6-.2,1-.2.3,0,.6.2.8.5.2.3.3.6.2.9,0,.3-.2.6-.5.8-.3.2-.6.2-1,.2ZM277.9,939.2l2.3-11.6,2.3.5-.3,1.4h.1c.1-.2.3-.4.6-.6.2-.2.5-.3.9-.4.4,0,.8,0,1.2,0,.6.1,1.2.4,1.6.8.5.4.8,1,1,1.7.2.7.2,1.5,0,2.5-.2.9-.5,1.7-.9,2.3-.4.6-.9,1-1.5,1.2-.6.2-1.2.3-1.8.1-.5,0-.8-.2-1.1-.5-.3-.2-.5-.5-.7-.7-.2-.3-.3-.5-.3-.8h0s-.9,4.5-.9,4.5l-2.3-.5ZM281.7,932.3c-.1.5-.1,1,0,1.4,0,.4.2.7.4,1,.2.3.5.4.9.5.4,0,.7,0,1-.1.3-.2.6-.4.8-.8.2-.3.4-.8.5-1.3,0-.5.1-.9,0-1.3,0-.4-.2-.7-.4-1s-.5-.4-.9-.5c-.4,0-.7,0-1,.1-.3.1-.6.4-.8.7-.2.3-.4.8-.5,1.3ZM292.2,938.8l-.6-8.9,2.4.5.2,5.9h0s2.5-5.4,2.5-5.4l2.3.5.3,5.9h0s2.4-5.4,2.4-5.4l2.4.5-4,8-2.5-.5-.4-5.6h-.1s-2.5,5-2.5,5l-2.5-.5ZM303,941l1.7-8.5,2.3.5-1.7,8.5-2.3-.5ZM306.1,931.7c-.3,0-.6-.2-.8-.5-.2-.3-.3-.6-.2-.9,0-.3.2-.6.5-.8.3-.2.6-.2,1-.2.3,0,.6.2.8.5.2.3.3.6.2.9,0,.3-.2.6-.5.8-.3.2-.6.2-1,.2ZM312.8,934.1l-.4,1.8-5.1-1,.4-1.8,5.1,1ZM309.2,931.3l2.3.5-1.6,7.9c0,.2,0,.4,0,.5,0,.1.1.2.2.3.1,0,.2.1.4.2.1,0,.2,0,.3,0,.1,0,.2,0,.3,0v1.8c-.1,0-.3,0-.5,0-.2,0-.5,0-.8,0-.6,0-1.1-.3-1.4-.5-.4-.3-.7-.6-.8-1-.2-.4-.2-.9,0-1.4l1.6-8.2ZM315.4,938.4l-1,4.9-2.3-.5,2.3-11.3,2.3.5-.9,4.3h0c.3-.4.7-.8,1.2-1,.5-.2,1-.2,1.7-.1.6.1,1.1.3,1.5.7.4.3.7.8.8,1.3.2.5.2,1.1,0,1.8l-1.1,5.4-2.3-.5,1-5c.1-.5,0-1-.2-1.3-.2-.3-.5-.6-1-.7-.3,0-.6,0-.9,0-.3,0-.5.2-.7.5-.2.2-.3.5-.4.9ZM330.2,937.6l-.4,1.8-5.2-1,.4-1.8,5.2,1ZM324.5,945.3l1.8-9.1c.1-.6.3-1.1.7-1.5.3-.4.7-.6,1.2-.7.5-.1,1-.1,1.5,0,.4,0,.7.2,1,.3.3.1.5.2.6.3l-.8,1.7c0,0-.2,0-.3-.2-.1,0-.3,0-.4-.1-.3,0-.6,0-.8,0-.2.1-.3.3-.3.6l-1.8,9-2.3-.5ZM329.2,946.2l1.7-8.5,2.3.5-.3,1.5h0c.3-.5.6-.8,1-1,.4-.2.9-.3,1.3-.2.1,0,.2,0,.4,0,.1,0,.2,0,.3.1l-.4,2.1c-.1,0-.2-.1-.4-.2-.2,0-.4-.1-.5-.1-.3,0-.7,0-1,0-.3,0-.6.3-.8.5-.2.2-.3.5-.4.9l-1,4.8-2.3-.5ZM334.9,947.3l1.7-8.5,2.3.5-1.7,8.5-2.3-.5ZM337.9,938c-.3,0-.6-.2-.8-.5-.2-.3-.3-.6-.2-.9,0-.3.2-.6.5-.8.3-.2.6-.2,1-.2.3,0,.6.2.8.5.2.3.3.6.2.9,0,.3-.2.6-.5.8-.3.2-.6.2-1,.2ZM342.2,949c-.9-.2-1.6-.5-2.1-1-.6-.5-.9-1.1-1.1-1.8-.2-.7-.2-1.5,0-2.4.2-.9.5-1.6,1-2.2.5-.6,1-1,1.7-1.3.7-.2,1.5-.3,2.3-.1.6.1,1.1.3,1.5.6.4.3.8.6,1.1,1.1.3.4.5.9.6,1.5,0,.6,0,1.2,0,1.9v.6c-.1,0-7.3-1.4-7.3-1.4l.3-1.5,4.9,1c0-.3,0-.7,0-.9s-.3-.5-.5-.7c-.2-.2-.5-.3-.9-.4-.4,0-.7,0-1,0-.3.1-.6.3-.8.5-.2.2-.3.5-.4.9l-.3,1.4c0,.4,0,.8,0,1.1,0,.3.3.6.5.8.3.2.6.4,1,.5.3,0,.5,0,.7,0,.2,0,.4-.1.6-.2.2-.1.3-.3.5-.5l2.1.6c-.2.5-.5.9-1,1.2-.4.3-.9.5-1.5.6-.6.1-1.2,0-1.9,0ZM350.3,945.4l-1,4.9-2.3-.5,1.7-8.5,2.2.4-.3,1.5h0c.3-.4.7-.8,1.2-1,.5-.2,1.1-.2,1.7-.1.6.1,1.1.3,1.5.7.4.3.7.8.8,1.3.1.5.2,1.1,0,1.8l-1.1,5.4-2.3-.5,1-5c.1-.5,0-.9-.2-1.3-.2-.3-.5-.6-1-.7-.3,0-.6,0-.9,0-.3,0-.5.2-.7.5-.2.2-.3.5-.4.9ZM359,952.3c-.6-.1-1.2-.4-1.6-.8-.5-.4-.8-1-.9-1.7-.2-.7-.2-1.5,0-2.5.2-1,.5-1.7,1-2.3.4-.6,1-1,1.5-1.2.6-.2,1.2-.3,1.8-.1.5,0,.9.3,1.1.5.3.2.5.5.7.8.2.3.3.5.3.8h0s.9-4.2.9-4.2l2.3.5-2.3,11.3-2.3-.5.3-1.4h0c-.2.2-.4.4-.6.6-.2.2-.5.3-.9.4-.3,0-.7,0-1.2,0ZM360.1,950.6c.4,0,.7,0,1-.1.3-.2.6-.4.8-.8.2-.3.4-.8.5-1.3.1-.5.1-1,0-1.4,0-.4-.2-.7-.4-1-.2-.3-.5-.4-.9-.5-.4,0-.7,0-1,.1s-.6.4-.8.8c-.2.3-.4.8-.5,1.2,0,.5-.1.9,0,1.3,0,.4.2.7.4,1,.2.3.5.4.9.5ZM373.3,948.8l-2.2-.3c0-.2,0-.4-.1-.5,0-.2-.2-.3-.4-.5-.2-.1-.4-.2-.7-.3-.4,0-.7,0-1,0-.3.1-.4.3-.5.5,0,.2,0,.4.1.6.1.2.4.3.8.5l1.5.6c.8.3,1.3.7,1.7,1.2s.4,1,.3,1.6c-.1.6-.4,1-.8,1.4-.4.4-.9.6-1.5.7-.6.1-1.3.1-2,0-1.1-.2-2-.6-2.5-1.2-.6-.6-.8-1.3-.8-2.2l2.3.3c0,.4.1.7.3.9.2.2.6.4,1,.5.4,0,.8,0,1,0,.3-.1.5-.3.5-.5,0-.2,0-.4-.2-.6-.1-.2-.4-.3-.8-.5l-1.4-.6c-.8-.3-1.4-.7-1.7-1.2-.3-.5-.4-1-.3-1.7.1-.5.3-1,.7-1.3.4-.3.9-.6,1.4-.7.6-.1,1.2,0,2,0,1.1.2,1.9.6,2.4,1.2.5.6.8,1.3.7,2.1Z"/>
              <g>
                <rect class="st12" x="626.6" y="972.8" width="21.6" height="58.1" rx="5.8" ry="5.8" transform="translate(-470.3 1429.9) rotate(-78.7)"/>
                <path class="st10" d="M621.2,995.8l.6,5.2h0s2.6-4.5,2.6-4.5l1.2.2-3.4,5.7-1.4-.3-.9-6.6,1.2.2ZM625.2,1003l.9-4.6,1.1.2-.9,4.6-1.1-.2ZM626.8,997.9c-.2,0-.3-.1-.4-.3-.1-.1-.1-.3-.1-.5,0-.2.1-.3.3-.4.1,0,.3-.1.5,0,.2,0,.3.1.4.3.1.1.1.3.1.5,0,.2-.1.3-.3.4-.1,0-.3.1-.5,0ZM631.7,1000.8h-1c0-.2,0-.3,0-.4,0-.1-.1-.2-.2-.3-.1,0-.2-.1-.4-.2-.2,0-.4,0-.6,0-.2,0-.3.2-.3.3,0,.1,0,.3,0,.4,0,.1.2.2.5.3l.8.3c.4.2.7.4.9.6.2.2.2.5.2.9,0,.3-.2.5-.4.7-.2.2-.5.3-.8.4-.3,0-.7,0-1.1,0-.6-.1-1-.3-1.3-.6-.3-.3-.4-.7-.4-1.1h1.1c0,.3,0,.5.2.6.1.1.3.2.6.3.3,0,.5,0,.7,0,.2,0,.3-.2.3-.3,0-.1,0-.3,0-.4,0-.1-.2-.2-.4-.3l-.8-.3c-.4-.2-.7-.4-.9-.7-.2-.3-.2-.6-.1-.9,0-.3.2-.5.4-.7.2-.2.5-.3.8-.4.3,0,.6,0,1,0,.5.1.9.3,1.2.6.3.3.4.6.4,1.1ZM632.1,1004.4l.9-4.6,1.1.2-.9,4.6-1.1-.2ZM633.7,999.2c-.2,0-.3-.1-.4-.3-.1-.1-.1-.3-.1-.5,0-.2.1-.3.3-.4.1,0,.3-.1.5,0,.2,0,.3.1.4.3.1.1.1.3.1.5,0,.2-.1.3-.3.4-.1,0-.3.1-.5,0ZM637.5,1000.7l-.2.8-2.7-.5.2-.8,2.7.5ZM635.7,999.2l1.1.2-.9,4.3c0,.1,0,.3,0,.4,0,0,0,.2.1.2,0,0,.1,0,.2,0,0,0,.1,0,.2,0h.1s0,.9,0,.9c0,0-.1,0-.3,0-.1,0-.2,0-.4,0-.3,0-.5-.1-.7-.3-.2-.1-.3-.3-.4-.5,0-.2-.1-.5,0-.8l.9-4.5ZM643.9,1002.1c0-.3,0-.5-.2-.7-.2-.2-.4-.3-.8-.4-.2,0-.4,0-.6,0-.2,0-.3.1-.4.2-.1.1-.2.2-.2.4,0,.1,0,.2,0,.4,0,.1.1.2.2.3,0,0,.2.2.3.2.1,0,.2.1.4.2l.5.3c.2.1.4.2.6.4.2.1.4.3.5.5.1.2.2.4.3.6,0,.2,0,.5,0,.7,0,.4-.2.7-.5.9-.2.2-.5.4-.9.5-.4,0-.8,0-1.3,0-.5-.1-.9-.3-1.2-.5-.3-.2-.6-.5-.7-.8-.1-.3-.2-.7-.1-1.1l1.1.2c0,.2,0,.4,0,.6,0,.2.2.3.4.4.2.1.4.2.6.2.2,0,.5,0,.7,0,.2,0,.4-.1.5-.2s.2-.3.3-.4c0-.2,0-.3,0-.4,0-.1-.2-.2-.3-.3-.1-.1-.3-.2-.5-.3l-.7-.3c-.5-.2-.8-.5-1.1-.8-.2-.3-.3-.7-.2-1.1,0-.4.2-.7.5-.9.3-.2.6-.4.9-.5.4,0,.8,0,1.2,0,.4,0,.8.2,1.1.5.3.2.5.5.7.8.1.3.2.6.1,1l-1.1-.2ZM645.1,1007l.9-4.6,1.1.2-.9,4.6-1.1-.2ZM646.7,1001.9c-.2,0-.3-.1-.4-.3-.1-.1-.1-.3-.1-.5,0-.2.1-.3.3-.4.1,0,.3-.1.5,0,.2,0,.3.1.4.3.1.1.1.3.1.5,0,.2-.1.3-.3.4-.1,0-.3.1-.5,0ZM650.5,1003.3l-.2.8-2.7-.5.2-.8,2.7.5ZM648.7,1001.8l1.1.2-.9,4.3c0,.1,0,.3,0,.4,0,0,0,.2.1.2,0,0,.1,0,.2,0,0,0,.1,0,.2,0h.1s0,.9,0,.9c0,0-.2,0-.3,0s-.2,0-.4,0c-.3,0-.5-.1-.7-.3-.2-.1-.3-.3-.4-.5,0-.2-.1-.5,0-.8l.9-4.5ZM652.5,1008.6c-.5,0-.8-.3-1.1-.5-.3-.3-.5-.6-.6-1-.1-.4-.1-.8,0-1.3s.3-.9.5-1.2c.3-.3.6-.5.9-.7.4-.1.8-.2,1.2,0,.3,0,.5.2.8.3.2.1.4.3.6.6.2.2.3.5.3.8s0,.7,0,1.1v.3c0,0-3.9-.8-3.9-.8v-.7c.1,0,2.9.5,2.9.5,0-.2,0-.4,0-.6,0-.2-.2-.3-.3-.5-.1-.1-.3-.2-.5-.3-.2,0-.4,0-.6,0-.2,0-.3.2-.5.3-.1.1-.2.3-.3.5v.6c-.2.3-.2.5-.1.7,0,.2.2.4.3.5.2.1.4.2.6.3.2,0,.3,0,.4,0,.1,0,.3,0,.4-.1.1,0,.2-.2.3-.3l1,.3c-.1.2-.3.5-.5.6-.2.2-.5.3-.8.3-.3,0-.6,0-1,0Z"/>
              </g>
              <g>
                <rect class="st12" x="270.7" y="700.4" width="20.2" height="67.8" rx="5.8" ry="5.8" transform="translate(-494.5 865.2) rotate(-78.7)"/>
                <path class="st10" d="M256.1,732l-1-.2,2.8-4.8,1.1.2.8,5.5-1-.2-.6-4.4h0s-2.2,3.8-2.2,3.8ZM256.6,730l2.7.5v.7c-.1,0-2.9-.5-2.9-.5v-.7ZM261.8,733.2c-.3,0-.6-.2-.8-.4-.2-.2-.4-.5-.4-.8,0-.3,0-.7,0-1.1,0-.4.2-.8.4-1,.2-.3.4-.5.7-.6.3-.1.6-.1.8,0,.2,0,.4.1.5.2.1.1.2.2.3.3,0,.1.1.2.1.3h0s.4-1.9.4-1.9l.9.2-1,5.1-.9-.2v-.6c.1,0,0,0,0,0,0,0-.2.2-.3.3-.1,0-.2.2-.4.2-.2,0-.4,0-.6,0ZM262.2,732.5c.2,0,.4,0,.5,0,.2,0,.3-.2.4-.4.1-.2.2-.4.2-.6,0-.2,0-.5,0-.7,0-.2-.1-.4-.2-.5-.1-.1-.3-.2-.5-.3-.2,0-.4,0-.5,0-.2,0-.3.2-.4.4-.1.2-.2.4-.2.6,0,.2,0,.5,0,.7,0,.2.1.4.2.5.1.1.3.2.5.3ZM269.1,730.6l-2.1,3.6-1-.2-.6-4.1,1,.2.3,3h0s1.5-2.7,1.5-2.7l1,.2ZM270.5,734.9c-.4,0-.7-.2-1-.4-.2-.2-.4-.5-.5-.8,0-.3,0-.7,0-1.1,0-.4.2-.7.4-1,.2-.3.5-.5.8-.6.3-.1.6-.1,1,0,.2,0,.5.1.6.3.2.1.4.3.5.5.1.2.2.4.3.7,0,.3,0,.6,0,.9v.3c0,0-3.2-.6-3.2-.6v-.6c.1,0,2.4.5,2.4.5,0-.2,0-.3,0-.5,0-.2-.1-.3-.2-.4-.1-.1-.3-.2-.4-.2-.2,0-.4,0-.5,0-.2,0-.3.2-.4.3-.1.1-.2.3-.2.4v.5c-.2.2-.1.4-.1.6,0,.2.1.3.3.4.1.1.3.2.5.2.1,0,.3,0,.4,0,.1,0,.2,0,.3-.1,0,0,.2-.1.2-.2l.8.3c0,.2-.2.4-.4.5-.2.1-.4.2-.6.3-.3,0-.5,0-.8,0ZM273,735.3l.8-3.8.9.2v.6c-.1,0,0,0,0,0,.1-.2.3-.4.5-.4.2,0,.4-.1.6,0,0,0,.1,0,.2,0,0,0,.1,0,.2,0l-.2.8s0,0-.2,0c0,0-.2,0-.2,0-.2,0-.3,0-.5,0-.1,0-.3.1-.4.2-.1.1-.2.2-.2.4l-.5,2.3-.9-.2ZM278.7,732.5v.7c-.1,0-2.4-.4-2.4-.4v-.7c.1,0,2.4.4,2.4.4ZM277.2,731.2l.9.2-.7,3.6c0,.1,0,.2,0,.3,0,0,0,.1.1.2,0,0,.1,0,.2,0,0,0,.1,0,.2,0,0,0,0,0,.1,0v.7s-.1,0-.2,0c0,0-.2,0-.3,0-.2,0-.4-.1-.6-.2-.2-.1-.3-.3-.4-.4,0-.2,0-.4,0-.6l.8-3.8ZM278.6,736.5l.8-3.8.9.2-.8,3.8-.9-.2ZM280,732.2c-.1,0-.3-.1-.3-.2,0-.1-.1-.2,0-.4,0-.1.1-.2.2-.3.1,0,.3,0,.4,0,.1,0,.3.1.3.2,0,.1.1.2,0,.4,0,.1-.1.2-.2.3-.1,0-.3,0-.4,0ZM284.1,734.6h-.8c0-.2,0-.3,0-.3,0,0-.1-.2-.2-.2,0,0-.2-.1-.3-.1-.2,0-.4,0-.5,0-.1,0-.2.1-.3.3,0,.1,0,.2,0,.3,0,0,.2.2.4.3l.6.3c.3.2.6.3.7.5.1.2.2.4.1.7,0,.2-.2.4-.3.6-.2.2-.4.3-.7.3-.3,0-.6,0-.9,0-.5,0-.8-.3-1.1-.5-.2-.3-.4-.6-.3-.9h.9c0,.3,0,.4.2.5.1.1.3.2.5.2.2,0,.4,0,.5,0,.1,0,.2-.2.3-.3,0-.1,0-.2,0-.3,0,0-.2-.2-.4-.2l-.6-.3c-.4-.2-.6-.3-.7-.6-.1-.2-.2-.5-.1-.7,0-.2.2-.4.3-.6.2-.1.4-.2.6-.3.3,0,.5,0,.8,0,.5,0,.8.3,1,.5.2.2.3.5.3.9ZM286,738c-.4,0-.7-.2-1-.4-.2-.2-.4-.5-.5-.8,0-.3,0-.7,0-1.1,0-.4.2-.7.4-1,.2-.3.5-.5.8-.6.3-.1.6-.1,1,0,.2,0,.5.1.6.2.2.1.4.3.5.5.1.2.2.4.3.7,0,.3,0,.6,0,.9v.3c0,0-3.2-.6-3.2-.6v-.6c.1,0,2.4.5,2.4.5,0-.2,0-.3,0-.5,0-.2-.1-.3-.2-.4-.1-.1-.3-.2-.4-.2-.2,0-.4,0-.5,0-.2,0-.3.2-.4.3-.1.1-.2.3-.2.4v.5c-.2.2-.1.4-.1.6,0,.2.1.3.3.4.1.1.3.2.5.2.1,0,.3,0,.4,0,.1,0,.2,0,.3-.1,0,0,.2-.1.2-.2l.8.3c0,.2-.2.4-.4.5-.2.1-.4.2-.6.3-.3,0-.5,0-.8,0ZM288.5,738.5l.8-3.8.9.2v.7c-.1,0,0,0,0,0,.1-.2.3-.4.5-.4.2,0,.4-.1.7,0,.3,0,.5.2.6.3.2.2.2.4.3.6h0c.1-.2.3-.3.5-.4.2,0,.5-.1.8,0,.4,0,.6.2.8.5.2.3.2.6.1,1l-.5,2.6-.9-.2.5-2.4c0-.2,0-.4,0-.6-.1-.1-.2-.2-.4-.3-.2,0-.4,0-.6.1-.1.1-.2.3-.3.5l-.5,2.4-.9-.2.5-2.5c0-.2,0-.4,0-.5,0-.1-.2-.2-.4-.3-.1,0-.3,0-.4,0-.1,0-.2.1-.3.2,0,.1-.1.2-.2.4l-.5,2.3-.9-.2ZM296.5,740.2c-.4,0-.7-.2-1-.4-.2-.2-.4-.5-.5-.8,0-.3,0-.7,0-1.1,0-.4.2-.7.4-1,.2-.3.5-.5.8-.6.3-.1.6-.1,1,0,.2,0,.5.1.6.2.2.1.4.3.5.5.1.2.2.4.3.7,0,.3,0,.6,0,.9v.3c0,0-3.2-.6-3.2-.6v-.6c.1,0,2.4.5,2.4.5,0-.2,0-.3,0-.5,0-.2-.1-.3-.2-.4-.1-.1-.3-.2-.4-.2-.2,0-.4,0-.5,0-.2,0-.3.2-.4.3-.1.1-.2.3-.2.4v.5c-.2.2-.1.4,0,.6,0,.2.1.3.3.4.1.1.3.2.5.2.1,0,.3,0,.4,0,.1,0,.2,0,.3-.1,0,0,.2-.1.2-.2l.8.3c0,.2-.2.4-.4.5-.2.1-.4.2-.6.3-.3,0-.5,0-.8,0ZM300.4,738.5l-.5,2.3-.9-.2.8-3.8.9.2v.7c-.1,0,0,0,0,0,.1-.2.3-.3.5-.4.2,0,.5-.1.8,0,.3,0,.5.2.7.3.2.2.3.3.4.6,0,.2,0,.5,0,.8l-.5,2.4-.9-.2.5-2.3c0-.3,0-.5,0-.6-.1-.2-.3-.3-.5-.3-.2,0-.3,0-.4,0-.1,0-.3.1-.3.2,0,.1-.2.3-.2.5ZM306,738v.7c-.1,0-2.4-.4-2.4-.4v-.7c.1,0,2.4.4,2.4.4ZM304.5,736.7l.9.2-.7,3.6c0,.1,0,.2,0,.3,0,0,0,.1.1.2,0,0,.1,0,.2,0,0,0,.1,0,.2,0,0,0,0,0,.1,0v.7s-.1,0-.2,0c0,0-.2,0-.3,0-.2,0-.4-.1-.6-.2-.2-.1-.3-.3-.4-.4,0-.2,0-.4,0-.6l.8-3.8Z"/>
              </g>
            </g>
          </g>
          <g class="st21">
            <g>
              <rect class="st18" x="252.1" y="454.2" width="256.7" height="244.5" rx="21.6" ry="21.6" transform="translate(-259.5 836.2) rotate(-78.7)"/>
              <image width="1500" height="1500" transform="translate(282.6 427.3) rotate(11.2) scale(.2)" xlink:href="k_Photo_Series_2023-01-how-to-make-cajun-gumbo_2022-how-to-make-cajun-gumbo__925.jpg"/>
              <rect class="st14" x="252.1" y="454.2" width="256.7" height="244.5" rx="21.6" ry="21.6" transform="translate(-259.5 836.2) rotate(-78.7)"/>
              <rect class="st14" x="210.2" y="402" width="353.8" height="283.3" transform="translate(-222.1 816.3) rotate(-78.7)"/>
            </g>
          </g>
          <g class="st5">
            <rect class="st18" x="510.9" y="506.1" width="256.7" height="244.5" rx="21.6" ry="21.6" transform="translate(-102.5 1131.6) rotate(-78.7)"/>
            <image width="3333" height="3333" transform="translate(530.9 466.4) rotate(11.2) scale(0)" xlink:href="vegetable-soup_RECIPE_V1_092024_10321_VOG_final.jpeg"/>
            <rect class="st14" x="510.9" y="506.1" width="256.7" height="244.5" rx="21.6" ry="21.6" transform="translate(-102.5 1131.6) rotate(-78.7)"/>
          </g>
          <g class="st19">
            <rect class="st18" x="104.8" y="-131.3" width="256.7" height="244.5" rx="21.6" ry="21.6" transform="translate(196.2 221.3) rotate(-78.7)"/>
            <image width="1160" height="970" transform="translate(94 -167.1) rotate(11.2) scale(.3)" xlink:href="summer-desserts.jpg"/>
            <rect class="st14" x="104.8" y="-131.3" width="256.7" height="244.5" rx="21.6" ry="21.6" transform="translate(196.2 221.3) rotate(-78.7)"/>
          </g>
          <g class="st0">
            <g>
              <rect class="st18" x="-109.6" y="937.6" width="256.7" height="244.5" rx="21.6" ry="21.6" transform="translate(-1024.1 869.9) rotate(-78.7)"/>
              <image width="3607" height="3607" transform="translate(-90.9 866.3) rotate(11.2) scale(0)" xlink:href="How-to-Make-Chicken-Alfredo-Pasta-hero-02082017.jpeg"/>
              <rect class="st14" x="-109.6" y="937.6" width="256.7" height="244.5" rx="21.6" ry="21.6" transform="translate(-1024.1 869.9) rotate(-78.7)"/>
              <rect class="st14" x="-138.8" y="961.6" width="305.6" height="244.5" transform="translate(-1051.5 884.4) rotate(-78.7)"/>
              <g class="st1">
                <path class="st10" d="M136.8,981.1l1.3-6.6c.2-1-.4-2-1.5-2.2l-6.6-1.3c-1-.2-2,.4-2.2,1.5l-1.3,6.6c-.2,1,.4,2,1.5,2.2l6.6,1.3c1,.2,2-.5,2.2-1.5ZM139.4,976.3l-1.1,5.7c-.3,1.6-1.9,2.6-3.5,2.3l-5.7-1.1c-.2,0-.4.2-.3.4.3.5.7.8,1.3.9l4.7.9c2,.4,4-.9,4.4-2.9l.9-4.7c.1-.6,0-1.1-.3-1.6-.1-.2-.4,0-.5.1Z"/>
              </g>
            </g>
          </g>
          <g class="st20">
            <rect class="st18" x="51.5" y="134.5" width="256.7" height="244.5" rx="21.6" ry="21.6" transform="translate(-107.3 382.6) rotate(-78.7)"/>
            <image width="1200" height="1200" transform="translate(75.5 77.4) rotate(11.2) scale(.2)" xlink:href="featured-stovetop-burgers-recipe.jpg"/>
            <rect class="st14" x="51.5" y="134.5" width="256.7" height="244.5" rx="21.6" ry="21.6" transform="translate(-107.3 382.6) rotate(-78.7)"/>
          </g>
          <g class="st8">
            <g>
              <rect class="st18" x="361.4" y="-79.8" width="256.7" height="244.5" rx="21.6" ry="21.6" transform="translate(351.9 514.3) rotate(-78.7)"/>
              <image width="1500" height="1000" transform="translate(311.1 -133.1) rotate(11.2) scale(.3)" xlink:href="mamas-fried-chicken_audit1819_beauty_197-9d9a60dbcede4c7984c6d670fba69e08.jpg"/>
              <rect class="st14" x="326.8" y="-53.6" width="322.9" height="258.9" transform="translate(317.9 539.6) rotate(-78.7)"/>
            </g>
          </g>
          <g class="st9">
            <rect class="st18" x="111.5" y="1018.3" width="530.7" height="506.3" rx="21.6" ry="21.6" transform="translate(-943.9 1390.9) rotate(-78.7)"/>
            <image width="556" height="505" transform="translate(-262.5 594.2) scale(.7)" xlink:href="chorizo-mozarella-gnocchi-bake-cropped-9ab73a3.jpg"/>
            <rect class="st14" x="111.5" y="1018.3" width="530.7" height="506.3" rx="21.6" ry="21.6" transform="translate(-943.9 1390.9) rotate(-78.7)"/>
          </g>
          <g class="st13">
            <g>
              <rect class="st18" x="308.1" y="186" width="256.7" height="244.5" rx="21.6" ry="21.6" transform="translate(48.4 675.6) rotate(-78.7)"/>
              <use transform="translate(199.5 134.1) rotate(11.2) scale(.5)" xlink:href="#image"/>
              <use transform="translate(201.4 124.3) rotate(11.2) scale(.5)" xlink:href="#image"/>
              <use transform="translate(211.2 126.3) rotate(11.2) scale(.5)" xlink:href="#image"/>
              <use transform="translate(221 128.2) rotate(11.2) scale(.5)" xlink:href="#image"/>
              <use transform="translate(230.8 130.2) rotate(11.2) scale(.5)" xlink:href="#image"/>
              <use transform="translate(240.6 132.1) rotate(11.2) scale(.5)" xlink:href="#image"/>
              <use transform="translate(250.4 134.1) rotate(11.2) scale(.5)" xlink:href="#image"/>
              <use transform="translate(260.3 136) rotate(11.2) scale(.5)" xlink:href="#image"/>
              <use transform="translate(250.4 134.1) rotate(11.2) scale(.5)" xlink:href="#image"/>
              <use transform="translate(240.6 132.1) rotate(11.2) scale(.5)" xlink:href="#image"/>
              <use transform="translate(154.9 102.2) rotate(11.2) scale(.6)" xlink:href="#image"/>
              <rect class="st14" x="308.1" y="186" width="256.7" height="244.5" rx="21.6" ry="21.6" transform="translate(48.4 675.6) rotate(-78.7)"/>
              <rect class="st26" x="308.1" y="186" width="256.7" height="244.5" transform="translate(48.4 675.6) rotate(-78.7)"/>
              <g class="st22">
                <path class="st15" d="M489.1,345.9l.2-1.1M486.1,346.5l-.6-.9M485,352.1l-.9.6M491.7,347.6l.9-.6M484.4,349l-1.1-.2M492.1,355.9l-2.4,2.9c-.3.3-.4.5-.5.5-.1,0-.2,0-.3,0,0,0-.1-.3-.2-.7l-.9-8.4c0-.4,0-.5,0-.6,0,0,.1-.2.3-.2.1,0,.3,0,.6.2l7.4,4c.4.2.6.3.6.4,0,.1,0,.2,0,.3,0,.1-.3.2-.7.3l-3.6,1.1c0,0,0,0-.1,0,0,0,0,0,0,0,0,0,0,0,0,0Z"/>
              </g>
              <g class="st30">
                <g>
                  <path class="st31" d="M327.4,376.9h0c5.8,1.2,9.6,6.9,8.5,12.7h0c-1.2,5.8-6.9,9.6-12.7,8.5h0c-5.8-1.2-9.6-6.9-8.5-12.7h0c1.2-5.8,6.9-9.6,12.7-8.5Z"/>
                  <rect class="st14" x="314.5" y="376.7" width="21.6" height="21.6" transform="translate(-118.7 630.2) rotate(-78.7)"/>
                  <path class="st14" d="M327.4,376.9h0c5.8,1.2,9.6,6.9,8.5,12.7h0c-1.2,5.8-6.9,9.6-12.7,8.5h0c-5.8-1.2-9.6-6.9-8.5-12.7h0c1.2-5.8,6.9-9.6,12.7-8.5Z"/>
                  <rect class="st16" x="314.8" y="377.1" width="20.9" height="20.9" rx="10.4" ry="10.4" transform="translate(-118.7 630.2) rotate(-78.7)"/>
                </g>
              </g>
              <path class="st10" d="M338.7,393.3l1.2-6.2,1.1.2-1,5.2,2.7.5-.2.9-3.8-.8ZM344,394.4c-.3,0-.5-.2-.8-.3-.2-.2-.4-.3-.5-.6,0-.2-.1-.5,0-.8,0-.3.1-.5.3-.6s.3-.3.5-.3c.2,0,.4-.1.6-.1.2,0,.4,0,.7,0,.3,0,.5,0,.7,0,.2,0,.3,0,.4,0,0,0,.1-.1.2-.2h0c0-.2,0-.4,0-.6-.1-.2-.3-.3-.5-.3-.3,0-.5,0-.7,0-.2,0-.3.2-.4.3l-1-.3c.1-.3.3-.5.5-.6.2-.2.5-.3.8-.3.3,0,.6,0,.9,0,.2,0,.4.1.6.2.2,0,.4.2.6.4.2.2.3.3.3.6,0,.2,0,.5,0,.8l-.6,3.1-1-.2v-.6c.1,0,0,0,0,0,0,.1-.2.2-.4.3-.1,0-.3.1-.5.2-.2,0-.4,0-.6,0ZM344.5,393.7c.2,0,.4,0,.6,0,.2,0,.3-.1.4-.3.1-.1.2-.3.2-.4v-.5c0,0,0,0,0,0,0,0-.2,0-.3,0-.1,0-.2,0-.3,0-.1,0-.2,0-.3,0-.2,0-.3,0-.5,0-.1,0-.3,0-.3.1,0,0-.2.2-.2.3,0,.2,0,.4.1.5.1.1.3.2.5.3ZM350.2,393.6l.5-2.7,1.1.2-.9,4.6-1.1-.2.2-.8h0c-.2.2-.4.4-.6.5-.3.1-.6.1-.9,0-.3,0-.6-.2-.8-.4-.2-.2-.3-.4-.4-.7,0-.3,0-.6,0-1l.6-2.9,1.1.2-.6,2.8c0,.3,0,.5.1.7.1.2.3.3.6.4.2,0,.3,0,.5,0,.2,0,.3-.1.4-.3.1-.1.2-.3.3-.6ZM351.3,395.8l.9-4.6,1.1.2-.2.8h0c.1-.2.3-.4.6-.5.2-.1.5-.1.8,0,0,0,.1,0,.2,0,0,0,.1,0,.2,0l-.2,1s-.1,0-.2,0c0,0-.2,0-.3,0-.2,0-.4,0-.6,0-.2,0-.3.1-.4.3-.1.1-.2.3-.2.5l-.5,2.7-1.1-.2ZM355.2,396.7c-.3,0-.5-.2-.8-.3-.2-.2-.4-.3-.5-.6,0-.2-.1-.5,0-.8,0-.3.1-.5.3-.6.1-.2.3-.3.5-.3.2,0,.4-.1.6-.1.2,0,.4,0,.7,0,.3,0,.5,0,.7,0,.2,0,.3,0,.4,0,0,0,.1-.1.2-.2h0c0-.2,0-.4,0-.6-.1-.2-.3-.3-.5-.3-.3,0-.5,0-.7,0-.2,0-.3.2-.4.3l-1-.3c.1-.3.3-.5.5-.6.2-.2.5-.3.8-.3.3,0,.6,0,.9,0,.2,0,.4.1.6.2s.4.2.6.4c.2.2.3.3.3.6,0,.2,0,.5,0,.8l-.6,3.1-1-.2v-.6c.1,0,0,0,0,0,0,.1-.2.2-.4.3-.1,0-.3.1-.5.2-.2,0-.4,0-.6,0ZM355.6,395.9c.2,0,.4,0,.6,0,.2,0,.3-.1.4-.3.1-.1.2-.3.2-.4v-.5c0,0,0,0,0,0,0,0-.2,0-.3,0-.1,0-.2,0-.3,0-.1,0-.2,0-.3,0-.2,0-.3,0-.5,0-.1,0-.3,0-.3.1,0,0-.2.2-.2.3,0,.2,0,.4.1.5.1.1.3.2.5.3ZM358,397.2l.9-4.6,1,.2-.2.8h0c.1-.2.3-.4.6-.5.3-.1.5-.1.8,0,.3,0,.6.2.7.4.2.2.3.4.3.7h0c.2-.2.4-.4.6-.5.3-.1.6-.1.9,0,.4,0,.7.3,1,.6.2.3.3.7.2,1.3l-.6,3.1-1.1-.2.6-2.9c0-.3,0-.5-.1-.7-.1-.2-.3-.3-.5-.3-.3,0-.5,0-.7.1-.2.1-.3.3-.3.6l-.6,2.9-1.1-.2.6-3c0-.2,0-.4-.1-.6-.1-.2-.3-.3-.5-.3-.2,0-.3,0-.5,0-.1,0-.3.1-.4.3-.1.1-.2.3-.2.5l-.6,2.8-1.1-.2ZM366.2,398.9c-.3,0-.5-.2-.8-.3-.2-.2-.4-.3-.5-.6,0-.2-.1-.5,0-.8,0-.3.1-.5.3-.6.1-.2.3-.3.5-.3.2,0,.4-.1.6-.1.2,0,.4,0,.7,0,.3,0,.5,0,.7,0,.2,0,.3,0,.4,0,0,0,.1-.1.2-.2h0c0-.2,0-.4,0-.6-.1-.2-.3-.3-.5-.3-.3,0-.5,0-.7,0-.2,0-.3.2-.4.3l-1-.3c.1-.3.3-.5.5-.6.2-.2.5-.3.8-.3.3,0,.6,0,.9,0,.2,0,.4.1.6.2.2,0,.4.2.6.4.2.2.3.3.3.6,0,.2,0,.5,0,.8l-.6,3.1-1-.2v-.6c.1,0,0,0,0,0,0,.1-.2.2-.4.3-.1,0-.3.1-.5.2-.2,0-.4,0-.6,0ZM366.7,398.2c.2,0,.4,0,.6,0,.2,0,.3-.1.4-.3.1-.1.2-.3.2-.4v-.5c0,0,0,0,0,0,0,0-.2,0-.3,0-.1,0-.2,0-.3,0-.1,0-.2,0-.3,0-.2,0-.3,0-.5,0-.1,0-.3,0-.3.2,0,0-.2.2-.2.3,0,.2,0,.4.1.5.1.1.3.2.5.3ZM372.3,395.2l-.2.8-2.7-.5.2-.8,2.7.5ZM370.5,393.7l1.1.2-.9,4.3c0,.1,0,.3,0,.4,0,0,0,.1.1.2,0,0,.1,0,.2,0,0,0,.1,0,.2,0,0,0,.1,0,.1,0v.9s-.1,0-.2,0c-.1,0-.2,0-.4,0-.3,0-.5-.1-.7-.3-.2-.1-.3-.3-.4-.5,0-.2-.1-.5,0-.8l.9-4.5ZM374.8,395.7l-.2.8-2.7-.5.2-.8,2.7.5ZM373,394.2l1.1.2-.9,4.3c0,.1,0,.3,0,.3,0,0,0,.2.1.2,0,0,.1,0,.2,0,0,0,.1,0,.2,0,0,0,.1,0,.1,0v.9s-.1,0-.2,0c-.1,0-.2,0-.4,0-.3,0-.5-.1-.7-.3-.2-.1-.3-.3-.4-.5,0-.2-.1-.5,0-.8l.9-4.5ZM375.8,397.9l-.5,2.7-1.1-.2,1.2-6.2,1.1.2-.5,2.3h0c.2-.2.4-.4.6-.5.3-.1.6-.1.9,0,.3,0,.6.2.8.4.2.2.4.4.4.7,0,.3,0,.6,0,1l-.6,2.9-1.1-.2.6-2.8c0-.3,0-.6,0-.8-.1-.2-.3-.3-.6-.4-.2,0-.4,0-.5,0-.2,0-.3.1-.4.3-.1.1-.2.3-.2.5ZM380.7,401.8c-.5,0-.8-.3-1.1-.5-.3-.3-.5-.6-.6-1-.1-.4-.1-.8,0-1.3,0-.5.3-.9.5-1.2.3-.3.6-.6.9-.7.4-.1.8-.2,1.2,0,.3,0,.5.2.8.3.2.1.4.3.6.6.2.2.3.5.3.8,0,.3,0,.7,0,1.1v.3c0,0-3.8-.8-3.8-.8v-.7c.1,0,2.9.6,2.9.6,0-.2,0-.4,0-.6,0-.2-.2-.3-.3-.5-.1-.1-.3-.2-.5-.3-.2,0-.4,0-.6,0-.2,0-.3.2-.5.3-.1.2-.2.3-.3.5v.6c-.2.3-.2.5-.1.7,0,.2.2.4.3.5.2.1.4.2.6.3.2,0,.3,0,.4,0,.1,0,.3,0,.4-.1.1,0,.2-.2.3-.3l1,.3c-.1.3-.3.5-.5.6-.2.2-.5.3-.8.3-.3,0-.6,0-1,0ZM383.9,402.3l-.4-4.9,1.1.2.2,3.4h0s1.5-3.1,1.5-3.1l1.1.2.2,3.4h0s1.4-3.1,1.4-3.1l1.1.2-2.2,4.4-1.1-.2-.2-3.3h0s-1.5,2.9-1.5,2.9l-1.1-.2ZM393.7,400.8h-1c0-.2,0-.3,0-.4,0-.1-.1-.2-.2-.3-.1,0-.2-.1-.4-.2-.2,0-.4,0-.6,0-.2,0-.3.2-.3.3,0,.1,0,.3,0,.4,0,.1.2.2.5.3l.8.3c.4.2.7.4.9.6.2.2.2.5.2.9,0,.3-.2.5-.4.7-.2.2-.5.3-.8.4-.3,0-.7,0-1.1,0-.6-.1-1-.3-1.3-.6-.3-.3-.4-.7-.4-1.1h1.1c0,.3,0,.5.2.6s.3.2.6.3c.3,0,.5,0,.7,0,.2,0,.3-.2.3-.3,0-.1,0-.3,0-.4,0-.1-.2-.2-.4-.3l-.8-.3c-.4-.2-.7-.4-.9-.7-.2-.3-.2-.6-.1-.9,0-.3.2-.5.4-.7.2-.2.5-.3.8-.4.3,0,.6,0,1,0,.5.1.9.3,1.2.6.3.3.4.6.4,1.1Z"/>
              <g class="st23">
                <path class="st7" d="M455.5,408.9c-1.1.2-2,1.2-2.2,2.4-.3,1.3,0,2.4.7,3.4.5.8,1.1,1.6,1.7,2.3.1.2.3.3.4.5.3.3.5.6.7.8.2.2.4.3.6.4.2,0,.4,0,.7,0,.3-.1.6-.3,1-.4.2,0,.4-.2.6-.3.9-.4,1.7-.9,2.5-1.4.9-.7,1.7-1.6,1.9-2.9.3-1.3-.2-2.5-1.1-3.1-.9-.6-2.2-.8-3.6.2-.1,0-.2,0-.3,0-.1,0-.2,0-.3-.2-1-1.5-2.2-1.9-3.2-1.6ZM459.3,409.7c-1.1-1.5-2.6-2-3.9-1.6-1.4.3-2.6,1.5-2.9,3.1-.3,1.6,0,2.9.8,4,.5.9,1.2,1.7,1.9,2.4.1.2.3.3.4.5.3.3.5.6.8.9.3.3.6.5,1,.6.4,0,.8,0,1.2-.1.4-.1.7-.3,1.1-.5.2,0,.4-.2.6-.3.9-.4,1.8-.9,2.7-1.5,1-.8,1.9-1.9,2.3-3.4.3-1.6-.3-3.2-1.5-4-1.1-.8-2.7-.9-4.3,0Z"/>
              </g>
              <path class="st24" d="M471.1,413.4l-1.2,6.2-.9-.2,1-5.2h0s-1.7.7-1.7.7l.2-.9,1.7-.7.9.2ZM471.6,419.9v-.7c.1,0,2.6-1.7,2.6-1.7.3-.2.5-.4.7-.5.2-.1.3-.3.4-.4s.2-.3.2-.5c0-.2,0-.4,0-.6,0-.2-.2-.3-.3-.4-.1-.1-.3-.2-.5-.2-.2,0-.4,0-.6,0-.2,0-.3.2-.5.3-.1.1-.2.3-.2.5l-.9-.2c0-.4.2-.7.5-.9s.5-.4.8-.5c.3,0,.7-.1,1.1,0,.4,0,.7.2,1,.4.3.2.5.5.6.8.1.3.1.6,0,.9,0,.2-.1.4-.3.6-.1.2-.3.4-.6.6-.3.2-.6.5-1.1.8l-1.5,1h0s2.8.6,2.8.6l-.2.8-4.1-.8ZM478.9,421.5c-.5,0-.9-.3-1.1-.6-.3-.3-.5-.7-.6-1.2,0-.5,0-1.1,0-1.8.1-.7.3-1.2.6-1.7.3-.4.6-.7,1-.9.4-.2.8-.2,1.3-.1.5,0,.8.3,1.1.6.3.3.5.7.6,1.2,0,.5,0,1.1,0,1.8-.1.7-.3,1.2-.6,1.7-.3.4-.6.7-1,.9-.4.2-.8.2-1.3.1ZM479,420.7c.4,0,.8,0,1.1-.4.3-.4.6-.9.7-1.7.1-.5.1-1,0-1.3,0-.4-.1-.7-.3-.9-.2-.2-.4-.4-.7-.4-.4,0-.8,0-1.1.4-.3.4-.6.9-.7,1.7-.1.5-.1,1-.1,1.3,0,.4.1.7.3.9.2.2.4.4.7.4Z"/>
              <g class="st3">
                <g>
                  <path class="st6" d="M497.4,422c0,.3-.4.5-.7.5-.3,0-.5-.4-.5-.7,0-.3.4-.5.7-.5.3,0,.5.4.5.7Z"/>
                  <path class="st6" d="M499.8,422.5c0,.3-.4.5-.7.5-.3,0-.5-.4-.5-.7,0-.3.4-.5.7-.5.3,0,.5.4.5.7Z"/>
                  <path class="st6" d="M502.1,423c0,.3-.4.5-.7.5-.3,0-.5-.4-.5-.7,0-.3.4-.5.7-.5.3,0,.5.4.5.7Z"/>
                  <path class="st7" d="M505.5,423.6c.7-3.5-1.6-6.9-5-7.6-3.5-.7-6.9,1.6-7.6,5-.2,1-.2,2,0,2.9,0,.1,0,.3,0,.4l-.6,1.2c-.4.8.2,1.8,1.2,1.8h1.4c.1,0,.2,0,.4,0,.8.6,1.7,1,2.7,1.2,3.5.7,6.9-1.6,7.6-5ZM500.3,416.9c3,.6,4.9,3.5,4.3,6.5-.6,3-3.5,4.9-6.5,4.3-.9-.2-1.7-.5-2.3-1.1-.3-.2-.6-.3-1-.3h-1.4c-.3.1-.4-.2-.3-.4l.6-1.2c.2-.3.2-.7,0-1-.2-.8-.3-1.7,0-2.5.6-3,3.5-4.9,6.5-4.3Z"/>
                </g>
              </g>
              <path class="st24" d="M510.5,427.8c-.3,0-.5-.2-.8-.3-.2-.1-.5-.4-.6-.6-.2-.3-.3-.6-.3-1,0-.4,0-.9,0-1.5.1-.5.3-1,.4-1.4.2-.4.4-.7.7-1,.3-.2.5-.4.9-.5.3,0,.7-.1,1,0,.4,0,.7.2.9.4.3.2.4.4.6.7.1.3.2.6.2.9l-.9-.2c0-.3,0-.5-.2-.7-.2-.2-.4-.3-.7-.4-.5,0-.8,0-1.2.4-.3.3-.6.9-.7,1.6h0c.1-.1.3-.3.5-.4.2,0,.4-.2.6-.2.2,0,.4,0,.6,0,.4,0,.7.2.9.5.3.2.4.5.6.9s.1.7,0,1.1c0,.4-.2.7-.5,1-.2.3-.5.5-.9.6-.4.1-.8.1-1.2,0ZM510.7,427c.2,0,.5,0,.7,0,.2,0,.4-.2.5-.4.1-.2.2-.4.3-.6,0-.2,0-.5,0-.7,0-.2-.2-.4-.3-.5-.2-.2-.4-.2-.6-.3-.2,0-.4,0-.5,0-.2,0-.3.1-.5.2-.1,0-.3.2-.4.4,0,.1-.2.3-.2.5,0,.2,0,.5,0,.7,0,.2.2.4.3.6.2.2.4.3.6.3ZM515.8,428.9c-.4,0-.8-.2-1.1-.5-.3-.2-.5-.5-.6-.8-.1-.3-.2-.6,0-.9,0-.3.2-.5.3-.7.2-.2.3-.4.6-.5.2-.1.4-.2.7-.2h0c-.3-.2-.5-.4-.6-.7-.1-.3-.2-.6,0-.9,0-.3.2-.6.4-.8.2-.2.5-.4.8-.4.3,0,.7,0,1.1,0,.4,0,.7.2,1,.4.3.2.5.4.6.7.1.3.2.6,0,.9,0,.3-.2.6-.5.8-.2.2-.5.3-.8.3h0c.2.1.4.3.6.4.2.2.3.4.3.6,0,.2,0,.5,0,.8,0,.3-.2.6-.5.8-.2.2-.5.4-.9.5-.4,0-.8,0-1.2,0ZM516,428.1c.3,0,.5,0,.7,0,.2,0,.4-.1.5-.3.1-.1.2-.3.3-.5,0-.2,0-.4,0-.6,0-.2-.2-.3-.4-.5-.2-.1-.4-.2-.6-.3-.2,0-.5,0-.7,0s-.4.2-.5.3c-.1.1-.2.3-.3.5,0,.2,0,.4,0,.6,0,.2.2.3.4.4.2.1.4.2.6.3ZM516.5,425.3c.2,0,.4,0,.6,0,.2,0,.3-.1.4-.3.1-.1.2-.3.2-.5,0-.2,0-.4,0-.5,0-.2-.2-.3-.3-.4-.1-.1-.3-.2-.5-.2-.2,0-.4,0-.6,0-.2,0-.3.1-.4.3-.1.1-.2.3-.2.5,0,.2,0,.4,0,.5s.2.3.3.4c.1.1.3.2.5.2Z"/>
            </g>
          </g>
          <g class="st28">
            <rect class="st18" x="455.9" y="104.6" width="527.8" height="244.5" rx="21.6" ry="21.6" transform="translate(355.9 888) rotate(-78.7)"/>
            <image width="5484" height="7320" transform="translate(562.7 -102.2) rotate(11.2) scale(0)" xlink:href="OLI-0918_HereNow-CremeCaramel_28005-cb31e47.jpg"/>
            <rect class="st14" x="455.9" y="104.6" width="527.8" height="244.5" rx="21.6" ry="21.6" transform="translate(355.9 888) rotate(-78.7)"/>
          </g>
          <g>
            <g class="st2">
              <rect class="st18" x="-166.7" y="535.7" width="527.8" height="244.5" rx="21.6" ry="21.6" transform="translate(-567 623.8) rotate(-78.7)"/>
              <image width="960" height="1280" transform="translate(-50.7 343) rotate(11.2) scale(.4)" xlink:href="Shrimp-Mac-and-Cheese-10.jpg"/>
              <rect class="st14" x="-166.7" y="535.7" width="527.8" height="244.5" rx="21.6" ry="21.6" transform="translate(-567 623.8) rotate(-78.7)"/>
            </g>
            <g class="st4">
              <path class="st11" d="M240,435.9h0c1.6.3,2.9.6,3.9.9,1,.3,1.7.8,2.2,1.5.5.8.6,1.6.6,2.7,0,1-.3,2.3-.6,3.9h0c-.3,1.7-.6,3-.9,4-.3,1-.8,1.7-1.5,2.2-.8.5-1.6.6-2.7.6-1,0-2.3-.3-3.9-.6h0c-1.6-.3-2.9-.6-3.9-.9-1-.3-1.7-.8-2.2-1.5-.5-.8-.6-1.6-.6-2.7,0-1,.3-2.3.6-3.9h0c.3-1.7.6-3,.9-4,.3-1,.8-1.7,1.5-2.2.8-.5,1.6-.6,2.7-.6,1,0,2.3.3,3.9.6ZM236,436.3c-.9,0-1.5,0-2,.4-.5.3-.8.8-1.1,1.7,0,.1,0,.3-.1.4l2.6.5,2.6-2.8c-.8-.1-1.5-.2-2-.3ZM239.2,436.8s0,0,0,0l-2.6,2.7,3.3.7,2.6-2.7c-.7-.2-1.6-.4-2.8-.6-.2,0-.4,0-.6-.1ZM243.7,437.9l-2.5,2.6,4.4.9c0-.2,0-.3,0-.5,0-.9,0-1.5-.4-2-.3-.5-.8-.8-1.6-1.1ZM245.4,442.5l-5.4-1.1s0,0,0,0l-4.6-.9s0,0,0,0l-3-.6c-.1.6-.3,1.4-.5,2.3-.3,1.7-.6,2.9-.6,3.8,0,.9,0,1.5.4,2,.3.5.8.8,1.7,1.1.9.3,2.1.6,3.8.9,1.7.3,2.9.6,3.8.6.9,0,1.5,0,2-.4.5-.3.8-.8,1.1-1.7.3-.9.5-2.1.9-3.8.2-.9.3-1.6.4-2.3ZM239.5,443.6h0c.4.4.7.8.9,1,.2.3.4.7.3,1.1,0,.4-.4.7-.7.9-.3.2-.7.3-1.2.5h0c-.5.2-.9.4-1.3.5-.4,0-.8.1-1.2-.2-.3-.3-.4-.8-.3-1.1,0-.4.1-.9.2-1.4h0c.1-.6.2-1.1.3-1.5.1-.4.3-.7.8-.9.5-.2.9,0,1.2.2.3.2.6.5,1,.9ZM237.6,443.5s0,0,0,0c0,0,0,0,0,0ZM237.7,443.5s0,0,.2,0c.2.2.5.4.9.8.4.4.7.7.8.9.1.2.1.3.1.3,0,0,0,0-.2.2-.2.1-.6.3-1.1.5-.6.2-.9.4-1.2.4,0,0-.2,0-.2,0,0,0,0-.1,0-.3,0-.3.1-.7.2-1.3.1-.6.2-1,.3-1.3,0-.2,0-.2.1-.2ZM237,446.7s0,0,0,0c0,0,0,0,0,0ZM237,446.7s0,0,0,0c0,0,0,0,0,0ZM237.7,443.5s0,0,0,0c0,0,0,0,0,0Z"/>
            </g>
          </g>
        </g>
      </g>
    </g>
  </g>
</svg>